<svg xmlns="http://www.w3.org/2000/svg" viewBox="0 0 760 620" fill="none">
  <defs>
    <linearGradient id="g" x1="120" y1="80" x2="650" y2="560" gradientUnits="userSpaceOnUse">
      <stop stop-color="#61D5E6"/>
      <stop offset="1" stop-color="#2F6EA8"/>
    </linearGradient>
    <filter id="glow" x="-20%" y="-20%" width="140%" height="140%">
      <feGaussianBlur stdDeviation="2.5" result="b"/>
      <feMerge><feMergeNode in="b"/><feMergeNode in="SourceGraphic"/></feMerge>
    </filter>
  </defs>
  <g stroke="url(#g)" stroke-width="1.35" opacity=".8" filter="url(#glow)">
    <path d="M220 180 430 70 610 170 400 290 220 180Z"/>
    <path d="M220 180v305l180 95V290L220 180Z"/>
    <path d="M400 290v290l210-120V170L400 290Z"/>
    <path d="M430 70v210M470 94v163M510 117v117M550 141v70"/>
    <path d="M255 200v303M292 219v303M329 238v303M366 258v303"/>
    <path d="M438 310v248M477 288v248M516 266v248M555 244v248"/>
    <path d="M220 235 400 330 610 210M220 290 400 385 610 265M220 345 400 440 610 320M220 400 400 495 610 375M220 455 400 550 610 430"/>
    <path d="M175 505 400 620 655 476"/>
    <path d="M130 535 400 675 700 505" opacity=".35"/>
    <path d="M235 180 430 80M250 190 445 90M265 200 460 100" opacity=".35"/>
    <path d="M190 175 430 50 645 165" opacity=".3"/>
    <path d="M590 132v342M565 146v342"/>
  </g>
  <g stroke="#70D7E4" stroke-width="1" opacity=".42">
    <path d="M610 210h100M610 315h100M610 420h100M610 505h100"/>
    <path d="M710 210h20M710 315h20M710 420h20M710 505h20"/>
  </g>
  <g fill="#9BEAF2" font-family="Arial, sans-serif" font-size="14" font-weight="700" letter-spacing="1.2">
    <text x="735" y="206">TELECOMMUNICATIONS</text><text x="735" y="224">INFRASTRUCTURE</text>
    <text x="735" y="311">SECURITY SYSTEMS</text>
    <text x="735" y="416">CONNECTED BUILDING</text><text x="735" y="434">TECHNOLOGIES</text>
    <text x="735" y="501">DESIGN COORDINATION</text><text x="735" y="519">&amp; DOCUMENTATION</text>
  </g>
</svg>