<svg xmlns="http://www.w3.org/2000/svg" viewBox="0 0 620 620" fill="none">
  <defs>
    <linearGradient id="line" x1="100" y1="60" x2="530" y2="570" gradientUnits="userSpaceOnUse">
      <stop stop-color="#6ee7f2"/>
      <stop offset="1" stop-color="#3c88c9"/>
    </linearGradient>
    <filter id="glow" x="-25%" y="-25%" width="150%" height="150%">
      <feGaussianBlur stdDeviation="2.2" result="blur"/>
      <feMerge>
        <feMergeNode in="blur"/>
        <feMergeNode in="SourceGraphic"/>
      </feMerge>
    </filter>
  </defs>

  <g stroke="url(#line)" stroke-width="1.6" opacity=".9" filter="url(#glow)">
    <!-- roof / mass -->
    <path d="M155 190 355 85 520 180 320 295 155 190Z"/>
    <path d="M155 190v300l165 92V295L155 190Z"/>
    <path d="M320 295v287l200-114V180L320 295Z"/>

    <!-- vertical structure -->
    <path d="M190 208v301M225 227v301M260 247v301M295 266v301"/>
    <path d="M360 273v286M400 250v286M440 228v286M480 205v286"/>

    <!-- horizontal floor lines -->
    <path d="M155 242 320 334 520 220"/>
    <path d="M155 294 320 386 520 272"/>
    <path d="M155 346 320 438 520 324"/>
    <path d="M155 398 320 490 520 376"/>
    <path d="M155 450 320 542 520 428"/>

    <!-- upper setbacks / glazing -->
    <path d="M190 171 355 85M225 188 390 103M260 206 425 121"/>
    <path d="M355 85v197M395 108v151M435 131v106M475 154v60"/>

    <!-- site plane -->
    <path d="M110 510 320 620 565 480"/>
    <path d="M72 540 320 670 600 510" opacity=".35"/>
    <path d="M125 486 320 590 548 458" opacity=".45"/>

    <!-- subtle facade diagonals -->
    <path d="M155 190 320 295M320 295 520 180" opacity=".45"/>
    <path d="M155 490 320 582M320 582 520 468" opacity=".45"/>
  </g>
</svg>